<svg version="1.0"
  xmlns="http://www.w3.org/2000/svg" width="763" height="763" viewBox="0 0 763 763">
  <style>
    #path {
      fill: black;
    }
    #bg {
      fill:rgb(214, 214, 214);
    }
    @media (prefers-color-scheme: dark) {
      #path {
        fill: white;
      }
      #bg {
        fill: #AFAFAF;
      }
    }
  </style>
  <path id="bg" d="M618.667 106.667H106.667V618.667H618.667V106.667Z" fill="#AFAFAF"/>
  <path id="path" d="M156.133 55.3334C143.467 58.1334 135.2 61.0667 123.333 66.9334C110.133 73.4667 101.6 79.7334 89.3333 92.2667C73.4667 108.4 65.0667 122.8 57.6 146.533L54 158V381.333V604.667L57.7333 616.667C65.2 640.267 74.8 656.133 92.2667 673.333C108.4 689.2 122.8 697.6 146.533 705.067L158 708.667H381.333H604.667L616.667 704.933C640.267 697.467 656.133 687.867 673.333 670.4C689.2 654.267 697.6 639.867 705.067 616.133L708.667 604.667V381.333V158L704.933 146C697.467 122.4 687.867 106.533 670.4 89.3334C654.267 73.4667 639.867 65.0667 616.133 57.6L604.667 54L384.667 53.7334C200.667 53.6 163.333 53.8667 156.133 55.3334ZM445.067 180.533C478.533 199.867 509.067 217.467 512.667 219.6L519.333 223.467V303.333V383.2L490.933 399.6C475.333 408.667 462.267 416 461.867 416C461.6 416 461.333 380.133 461.333 336.133V256.4L394.4 217.867C357.733 196.667 326.8 178.667 325.733 178C324.267 176.933 330.533 172.8 352.267 160.267C367.867 151.333 381.467 144.267 382.4 144.667C383.333 145.067 411.6 161.067 445.067 180.533ZM378.933 219.867C414.4 240.267 445.6 258.267 448.4 260L453.333 262.933V295.467C453.333 315.2 452.8 328 452 328C451.333 328 443.467 323.733 434.533 318.533C425.467 313.333 394.8 295.6 366.267 279.2L314.4 249.2L290.267 263.2C276.933 270.8 246.667 288.267 222.933 301.867C199.333 315.6 179.067 327.067 177.867 327.6C176.267 328.267 176 324 176.267 295.2L176.667 262.133L200 248.667C239.333 225.733 314 182.667 314.267 182.667C314.533 182.667 343.6 199.333 378.933 219.867ZM558 247.2L586 263.467V343.333V423.2L517.333 462.933C479.6 484.8 448.267 502.667 447.867 502.667C446.267 502.667 392.8 471.067 392.4 469.867C392 468.8 451.6 433.733 513.067 398.933L528 390.4V310.533C528 266.533 528.4 230.667 529.067 230.667C529.6 230.8 542.667 238.133 558 247.2ZM342.8 276.133C358.133 284.933 370.667 292.667 370.667 293.067C370.667 293.6 353.067 304.133 331.6 316.4C310.267 328.667 279.467 346.4 263.333 355.733L234 372.667L233.333 452.267L232.667 531.867L204.4 515.6L176 499.333V419.333V339.333L181.733 336.133C195.867 328.133 277.2 281.2 294 271.2C304.267 265.2 313.2 260.133 313.733 260.133C314.4 260 327.333 267.2 342.8 276.133ZM301.067 426.4L301.333 505.333L306.4 508.4C311.333 511.6 396.533 560.8 424.267 576.533C435.067 582.667 438.133 585.067 436.933 586.133C436 586.933 423.2 594.667 408.4 603.2L381.333 618.533L353.067 602.267C337.467 593.2 306.267 575.2 283.733 562.133L242.667 538.4V458.8V379.2L270.4 363.067C285.6 354.267 298.667 347.067 299.333 347.2C300.133 347.467 300.8 375.2 301.067 426.4ZM369.867 468.533C400.667 486.4 430.933 503.733 436.933 507.2L447.867 513.467L466.933 502.533C477.467 496.533 508.133 478.8 535.067 463.067C562.133 447.467 584.8 434.667 585.467 434.667C586.267 434.667 586.533 447.333 586.4 467.467L586 500.4L544 524.533C520.933 537.867 489.867 555.867 474.933 564.4L447.733 580.133L429.6 569.6C419.6 563.867 393.333 548.8 371.333 536C349.333 523.333 326.533 510.133 320.667 506.667L310 500.533L309.6 467.467C309.333 437.2 309.467 434.4 311.467 435.2C312.667 435.6 338.933 450.667 369.867 468.533Z" fill="white"/>
</svg>
