<?xml version="1.0" standalone="no"?>
<!DOCTYPE svg PUBLIC "-//W3C//DTD SVG 20010904//EN"
 "http://www.w3.org/TR/2001/REC-SVG-20010904/DTD/svg10.dtd">
<svg version="1.0" xmlns="http://www.w3.org/2000/svg"
 width="1000.000000pt" height="1000.000000pt" viewBox="0 0 1000.000000 1000.000000"
 preserveAspectRatio="xMidYMid meet">

<g transform="translate(0.000000,1000.000000) scale(0.100000,-0.100000)"
fill="#000000" stroke="none">
<path d="M1220 9985 c-309 -43 -585 -179 -805 -400 -197 -196 -324 -433 -387
-718 l-23 -102 0 -3760 c0 -3573 1 -3765 18 -3855 108 -571 543 -1015 1107
-1130 97 -20 134 -20 3868 -20 4173 0 3839 -5 4049 65 477 159 832 561 933
1055 20 97 20 134 20 3868 0 4173 5 3839 -65 4049 -69 208 -184 393 -340 548
-194 195 -428 321 -713 387 l-97 23 -3735 1 c-3028 2 -3753 0 -3830 -11z
m5099 -1225 l1310 -755 0 -1525 1 -1525 -533 -307 c-292 -169 -540 -310 -549
-314 -17 -6 -18 72 -20 1515 l-3 1522 -1304 753 c-717 414 -1304 756 -1304
762 -1 10 1073 634 1085 631 4 -1 597 -342 1317 -757z m-1278 -738 l1314 -759
3 -636 2 -637 -117 69 c-65 37 -647 373 -1293 746 -646 373 -1184 684 -1195
691 -19 12 -143 -58 -1335 -746 l-1315 -759 -3 632 c-1 384 2 635 7 640 7 7
2600 1509 2617 1516 1 1 593 -340 1315 -757z m3319 -470 l535 -309 2 -1524 3
-1524 -723 -417 c-397 -229 -988 -570 -1314 -758 l-592 -341 -542 313 c-299
172 -543 318 -543 323 0 6 588 350 1307 765 l1307 755 0 1518 c0 1211 3 1518
13 1514 6 -3 253 -144 547 -315z m-4085 -555 c297 -172 540 -317 539 -322 0
-6 -589 -350 -1307 -765 l-1307 -754 0 -1518 c0 -835 -2 -1518 -4 -1518 -3 0
-249 141 -548 314 l-543 313 -2 1524 -3 1524 1313 757 c721 417 1314 758 1317
757 3 0 248 -140 545 -312z m-805 -2842 l0 -1515 23 -14 c12 -8 601 -349 1309
-758 708 -409 1288 -747 1289 -753 1 -5 -242 -151 -540 -323 l-542 -313 -1319
762 -1320 762 2 1520 3 1519 540 313 c297 172 543 314 548 314 4 1 7 -681 7
-1514z m1450 -895 c679 -392 1260 -727 1291 -745 l57 -33 1313 758 1314 759 3
-632 c2 -497 -1 -634 -10 -643 -7 -6 -599 -349 -1315 -762 l-1302 -751 -1313
758 -1313 758 -3 637 -2 637 22 -15 c13 -7 579 -334 1258 -726z"/>
</g>
</svg>
