<?xml version="1.0" standalone="no"?>
<!DOCTYPE svg PUBLIC "-//W3C//DTD SVG 20010904//EN"
    "http://www.w3.org/TR/2001/REC-SVG-20010904/DTD/svg10.dtd">
<svg version="1.0"
     xmlns="http://www.w3.org/2000/svg" width="512.000000pt" height="512.000000pt" viewBox="0 0 512.000000 512.000000" preserveAspectRatio="xMidYMid meet">
    <style>
        path {
        fill: black;
        }
        #bg {
        fill: white;
        }
        @media (prefers-color-scheme: dark) {
        path {
        fill: white;
        }
        #bg {
        fill: black;
        }
        }
    </style>
    <g transform="translate(50,50)" width="100%" height="100%">
        <rect id="bg" width="75%" height="75%" />
    </g>

    <g transform="translate(0.000000,512.000000) scale(0.100000,-0.100000)" stroke="none">
        <path d="M871 5005 c-95 -21 -157 -43 -246 -87 -99 -49 -163 -96 -255 -190
-119 -121 -182 -229 -238 -407 l-27 -86 0 -1675 0 -1675 28 -90 c56 -177 128
-296 259 -425 121 -119 229 -182 407 -238 l86 -27 1675 0 1675 0 90 28 c177
56 296 128 425 259 119 121 182 229 238 407 l27 86 0 1675 0 1675 -28 90 c-56
177 -128 296 -259 425 -121 119 -229 182 -407 238 l-86 27 -1650 2 c-1380 1
-1660 -1 -1714 -12z m2167 -939 c251 -145 480 -277 507 -293 l50 -29 0 -599 0
-599 -213 -123 c-117 -68 -215 -123 -218 -123 -2 0 -4 269 -4 599 l0 598 -502
289 c-275 159 -507 294 -515 299 -11 8 36 39 199 133 117 67 219 120 226 117
7 -3 219 -123 470 -269z m-496 -295 c266 -153 500 -288 521 -301 l37 -22 0
-244 c0 -148 -4 -244 -10 -244 -5 0 -64 32 -131 71 -68 39 -298 172 -512 295
l-389 225 -181 -105 c-100 -57 -327 -188 -505 -290 -177 -103 -329 -189 -338
-193 -12 -5 -14 27 -12 243 l3 248 175 101 c295 172 855 495 857 495 2 0 220
-125 485 -279z m1343 -205 l210 -122 0 -599 0 -599 -515 -298 c-283 -164 -518
-298 -521 -298 -12 0 -413 237 -416 246 -3 8 444 271 905 532 l112 64 0 599
c0 330 3 599 8 599 4 -1 102 -56 217 -124z m-1614 -217 c115 -66 209 -124 209
-127 0 -4 -132 -83 -293 -175 -160 -92 -391 -225 -512 -295 l-220 -127 -5
-597 -5 -597 -212 122 -213 122 0 600 0 600 43 24 c106 60 716 412 842 487 77
45 144 83 148 83 5 1 102 -53 218 -120z m-313 -1127 l2 -592 38 -23 c37 -24
676 -393 884 -511 81 -46 104 -64 95 -72 -7 -6 -103 -64 -214 -128 l-203 -115
-212 122 c-117 68 -351 203 -520 301 l-308 178 0 597 0 597 208 121 c114 66
212 120 217 119 6 -2 11 -210 13 -594z m516 -316 c231 -134 458 -264 503 -290
l82 -47 143 82 c79 45 309 178 511 296 203 117 373 213 378 213 6 0 8 -95 7
-246 l-3 -247 -315 -181 c-173 -100 -406 -235 -518 -299 l-204 -118 -136 79
c-75 43 -272 156 -437 252 -165 95 -336 194 -380 220 l-80 46 -3 248 c-2 227
-1 248 14 242 9 -3 206 -116 438 -250z"/>
    </g>
</svg>
